<svg width="73" height="72" viewBox="0 0 73 72" fill="none" xmlns="http://www.w3.org/2000/svg">
<g clip-path="url(#clip0_2645_1365)">
<g clip-path="url(#clip1_2645_1365)">
<path d="M72.4712 57.9202V51.5847H65.7133V47.361H63.4607V43.8413H65.7133V37.5059H48.869V39.6177H63.6015V41.7295H19.9067V43.8413H61.3487V47.361H15.3813C14.4109 47.361 13.6215 46.5716 13.6215 45.6012C13.6215 44.6307 14.4109 43.8413 15.3813 43.8413H17.7949V41.7295H15.3813C13.2466 41.7295 11.5097 43.4663 11.5097 45.6012C11.5097 47.7361 13.2466 49.4729 15.3813 49.4729H63.6013V51.5847H27.2076V53.6965H70.3592V55.8084H10.7353C7.43596 55.8084 4.75183 58.4925 4.75183 61.7919C4.75183 65.0912 7.43596 67.7754 10.7353 67.7754H60.4737V65.6635H10.7355C8.60056 65.6635 6.86379 63.9268 6.86379 61.7919C6.86379 59.6569 8.60056 57.9202 10.7355 57.9202H68.1067V61.4399H21.2946V63.5517H68.1067V65.6635H62.5857V67.7754H70.3593V69.8872H10.7355C6.27164 69.8872 2.64015 66.2557 2.64015 61.7919C2.64015 57.328 6.27164 53.6965 10.7355 53.6965H25.0959V51.5847H15.3815C12.0821 51.5847 9.39798 48.9006 9.39798 45.6012C9.39798 42.3018 12.0821 39.6177 15.3815 39.6177H46.7571V37.5059H15.3815C10.9177 37.5059 7.28616 41.1374 7.28616 45.6012C7.28616 47.9864 8.32363 50.1335 9.97043 51.6164C4.69847 52.0093 0.52832 56.4212 0.52832 61.7919C0.52832 67.4202 5.10718 71.999 10.7355 71.999H72.4712V65.6635H70.2185V57.9202H72.4712Z" fill="#E74040"/>
<path d="M17.0713 61.4414H19.1831V63.5532H17.0713V61.4414Z" fill="#E74040"/>
<path d="M19.9567 31.3844L20.4269 31.6979C20.6102 31.8201 25.0482 34.6911 36.4993 34.6911C47.9505 34.6911 52.3884 31.8201 52.5717 31.6979L53.042 31.3844V13.6065L59.3774 11.4947V21.4637C57.7544 21.9247 56.5617 23.4192 56.5617 25.1879V30.4674H64.305V25.1879C64.305 23.4192 63.1123 21.9247 61.4893 21.4637V10.7907L65.1803 9.56037L54.091 5.86383L53.4231 7.86725L58.5022 9.56023L36.4993 16.8946L14.4965 9.56037L36.4993 2.22615L51.4197 7.19963L52.0876 5.19622L36.4993 0L7.81836 9.56037L19.9567 13.6065V31.3844ZM62.1932 25.1879V28.3556H58.6735V25.1879C58.6735 24.2174 59.4629 23.428 60.4334 23.428C61.4038 23.428 62.1932 24.2174 62.1932 25.1879ZM22.0685 14.3104L36.4993 19.1207L50.9301 14.3104V22.5833H48.3256V24.6951H50.9301V26.8069H46.3545V28.9188H50.9301V30.1918C49.5693 30.8545 45.1909 32.5793 36.4993 32.5793C27.8012 32.5793 23.4226 30.8518 22.0685 30.1923V14.3104Z" fill="#E74040"/>
<path d="M12.8477 61.4414H14.9595V63.5532H12.8477V61.4414Z" fill="#E74040"/>
<path d="M42.1309 26.8066H44.2427V28.9185H42.1309V26.8066Z" fill="#E74040"/>
</g>
</g>
<defs>
<clipPath id="clip0_2645_1365">
<rect width="72" height="72" fill="white" transform="translate(0.5)"/>
</clipPath>
<clipPath id="clip1_2645_1365">
<rect width="71.9428" height="72" fill="white" transform="translate(0.52832)"/>
</clipPath>
</defs>
</svg>
