<svg width="73" height="72" viewBox="0 0 73 72" fill="none" xmlns="http://www.w3.org/2000/svg">
<g clip-path="url(#clip0_2645_1323)">
<g clip-path="url(#clip1_2645_1323)">
<g clip-path="url(#clip2_2645_1323)">
<g clip-path="url(#clip3_2645_1323)">
<path d="M71.3 28.8H50.9V25.2C50.9 24.816 50.7163 24.4551 50.4056 24.2292L37.7 14.9892V10.8H50.9C51.5627 10.8 52.1 10.2627 52.1 9.6V2.4C52.1 1.7373 51.5627 1.2 50.9 1.2H37.7C37.7 0.5373 37.1627 0 36.5 0C35.8373 0 35.3 0.5373 35.3 1.2V14.9892L22.5944 24.2292C22.2838 24.4551 22.1 24.816 22.1 25.2V28.8H1.7C1.0373 28.8 0.5 29.3373 0.5 30V70.8C0.5 71.4627 1.0373 72 1.7 72H71.3C71.9627 72 72.5 71.4627 72.5 70.8V30C72.5 29.3373 71.9627 28.8 71.3 28.8ZM37.7 3.6H49.7V8.4H37.7V3.6ZM22.1 69.6H2.9V31.2H22.1V69.6ZM41.3 69.6H31.7V57.6H41.3V69.6ZM48.5 69.6H43.7V56.4C43.7 55.7373 43.1627 55.2 42.5 55.2H30.5C29.8373 55.2 29.3 55.7373 29.3 56.4V69.6H24.5V25.8108L36.5 17.0832L48.5 25.8108V69.6ZM70.1 69.6H50.9V31.2H70.1V69.6Z" fill="#96BB7C"/>
<path d="M11.3 34.8008H6.5V37.2008H11.3V34.8008Z" fill="#96BB7C"/>
<path d="M18.5002 34.8008H13.7002V37.2008H18.5002V34.8008Z" fill="#96BB7C"/>
<path d="M11.3 39.5996H6.5V41.9996H11.3V39.5996Z" fill="#96BB7C"/>
<path d="M18.5002 39.5996H13.7002V41.9996H18.5002V39.5996Z" fill="#96BB7C"/>
<path d="M11.3 44.4004H6.5V46.8004H11.3V44.4004Z" fill="#96BB7C"/>
<path d="M18.5002 44.4004H13.7002V46.8004H18.5002V44.4004Z" fill="#96BB7C"/>
<path d="M11.3 49.1992H6.5V51.5992H11.3V49.1992Z" fill="#96BB7C"/>
<path d="M18.5002 49.1992H13.7002V51.5992H18.5002V49.1992Z" fill="#96BB7C"/>
<path d="M11.3 54H6.5V56.4H11.3V54Z" fill="#96BB7C"/>
<path d="M18.5002 54H13.7002V56.4H18.5002V54Z" fill="#96BB7C"/>
<path d="M59.3 34.8008H54.5V37.2008H59.3V34.8008Z" fill="#96BB7C"/>
<path d="M66.5002 34.8008H61.7002V37.2008H66.5002V34.8008Z" fill="#96BB7C"/>
<path d="M59.3 39.5996H54.5V41.9996H59.3V39.5996Z" fill="#96BB7C"/>
<path d="M66.5002 39.5996H61.7002V41.9996H66.5002V39.5996Z" fill="#96BB7C"/>
<path d="M59.3 44.4004H54.5V46.8004H59.3V44.4004Z" fill="#96BB7C"/>
<path d="M66.5002 44.4004H61.7002V46.8004H66.5002V44.4004Z" fill="#96BB7C"/>
<path d="M59.3 49.1992H54.5V51.5992H59.3V49.1992Z" fill="#96BB7C"/>
<path d="M66.5002 49.1992H61.7002V51.5992H66.5002V49.1992Z" fill="#96BB7C"/>
<path d="M59.3 54H54.5V56.4H59.3V54Z" fill="#96BB7C"/>
<path d="M66.5002 54H61.7002V56.4H66.5002V54Z" fill="#96BB7C"/>
<path d="M28.0996 35.9996C28.1049 40.6366 31.8627 44.3944 36.4996 44.3996C41.1388 44.3996 44.8996 40.6388 44.8996 35.9996C44.8996 31.3604 41.1388 27.5996 36.4996 27.5996C31.8604 27.5996 28.0996 31.3604 28.0996 35.9996ZM42.4996 35.9996C42.4996 39.3133 39.8133 41.9996 36.4996 41.9996C33.186 41.9996 30.4996 39.3133 30.4996 35.9996C30.5035 32.6876 33.1876 30.0035 36.4996 29.9996C39.8133 29.9996 42.4996 32.686 42.4996 35.9996Z" fill="#96BB7C"/>
<path d="M35.3004 34.7992H32.9004V37.1992H37.7004V31.1992H35.3004V34.7992Z" fill="#96BB7C"/>
</g>
</g>
</g>
</g>
<defs>
<clipPath id="clip0_2645_1323">
<rect width="72" height="72" fill="white" transform="translate(0.5)"/>
</clipPath>
<clipPath id="clip1_2645_1323">
<rect width="72" height="72" fill="white" transform="translate(0.5)"/>
</clipPath>
<clipPath id="clip2_2645_1323">
<rect width="72" height="72" fill="white" transform="translate(0.5)"/>
</clipPath>
<clipPath id="clip3_2645_1323">
<rect width="72" height="72" fill="white" transform="translate(0.5)"/>
</clipPath>
</defs>
</svg>
